<svg width="19" height="19" viewBox="0 0 19 19" fill="none" xmlns="http://www.w3.org/2000/svg">
<path d="M18.7416 16.4267L15.0415 12.7273C14.8745 12.5603 14.6481 12.4675 14.4106 12.4675H13.8057C14.83 11.1577 15.4386 9.5102 15.4386 7.718C15.4386 3.45455 11.9835 0 7.71932 0C3.45514 0 0 3.45455 0 7.718C0 11.9814 3.45514 15.436 7.71932 15.436C9.51183 15.436 11.1596 14.8275 12.4697 13.8033V14.4082C12.4697 14.6456 12.5624 14.872 12.7294 15.039L16.4295 18.7384C16.7784 19.0872 17.3425 19.0872 17.6876 18.7384L18.7379 17.6883C19.0867 17.3395 19.0867 16.7755 18.7416 16.4267ZM7.71932 12.4675C5.09549 12.4675 2.96897 10.3451 2.96897 7.718C2.96897 5.09462 5.09178 2.96846 7.71932 2.96846C10.3431 2.96846 12.4697 5.09091 12.4697 7.718C12.4697 10.3414 10.3469 12.4675 7.71932 12.4675Z" fill="black"/>
</svg>
